<?xml version="1.0" encoding="UTF-8" standalone="no"?>
<!DOCTYPE svg PUBLIC "-//W3C//DTD SVG 1.1//EN" "http://www.w3.org/Graphics/SVG/1.1/DTD/svg11.dtd">
<svg width="100%" height="100%" viewBox="0 0 512 512" version="1.1" xmlns="http://www.w3.org/2000/svg" xmlns:xlink="http://www.w3.org/1999/xlink" xml:space="preserve" xmlns:serif="http://www.serif.com/" style="fill-rule:evenodd;clip-rule:evenodd;stroke-linejoin:round;stroke-miterlimit:2;">
    <g transform="matrix(1,0,0,1,65.6993,20.5369)">
        <path d="M202.777,19.065C254.052,23.842 288.015,33.587 309.352,44.854C330.15,55.836 341.692,69.272 347.725,82.351C358.918,106.62 353.539,133.489 334.543,157.25C329.933,163.017 300.099,196.746 309.631,236.121C313.717,253.003 325.569,270.176 348.258,287.087C374.314,306.507 384.429,331.868 380.92,358.046C378.001,379.815 364.217,404.311 334.715,425.956C317.089,438.887 282.186,450.528 240.932,452.64C182.443,455.634 111.776,440.157 65.467,392.074C-7.68,316.125 -7.119,218.335 5.346,169.983C12.906,140.653 28.194,88.495 70.331,53.909C99.442,30.014 141.176,13.326 202.777,19.065Z" style="fill:rgb(227,132,57);"/>
    </g>
</svg>
