<?xml version="1.0" encoding="UTF-8" standalone="no"?>
<!DOCTYPE svg PUBLIC "-//W3C//DTD SVG 1.1//EN" "http://www.w3.org/Graphics/SVG/1.1/DTD/svg11.dtd">
<svg width="100%" height="100%" viewBox="0 0 512 512" version="1.1" xmlns="http://www.w3.org/2000/svg" xmlns:xlink="http://www.w3.org/1999/xlink" xml:space="preserve" xmlns:serif="http://www.serif.com/" style="fill-rule:evenodd;clip-rule:evenodd;stroke-linejoin:round;stroke-miterlimit:2;">
    <g transform="matrix(1,0,0,1,30.0872,4.55224)">
        <path d="M257.798,146.2C246.894,163.132 242.747,174.516 245.865,183.595C248.874,192.357 257.968,197.414 268.368,202.773C282.935,210.278 300.526,216.868 316.844,225.455C335.69,235.372 352.793,247.918 363.728,265.839C389.534,308.132 372.665,347.166 338.004,377.375C306.025,405.246 246.411,446.254 184.952,432.657C148.613,424.616 132.042,405.547 124.503,387.945C116.842,370.056 119.044,349.706 125.901,329.122C131.526,312.235 140.194,295.119 146.202,279.577C148.682,273.163 150.696,267.096 151.47,261.51C151.927,258.22 152.092,255.192 150.843,252.606C144.289,239.033 133.56,231.945 123.261,226.145C114.226,221.057 105.313,216.831 98.036,211.779C89.759,206.032 83.317,199.224 79.451,190.376C75.699,181.788 74.204,171.033 77.157,156.669C82.318,131.558 98.631,111.089 120.161,96.246C150.508,75.325 191.122,65.896 220.657,68.968C241.191,71.104 256.748,79.561 264.201,91.788C271.867,104.365 272.971,122.638 257.798,146.2Z" style="fill:rgb(66,133,191);"/>
    </g>
</svg>
