<?xml version="1.0" encoding="UTF-8" standalone="no"?>
<!DOCTYPE svg PUBLIC "-//W3C//DTD SVG 1.1//EN" "http://www.w3.org/Graphics/SVG/1.1/DTD/svg11.dtd">
<svg width="100%" height="100%" viewBox="0 0 512 512" version="1.1" xmlns="http://www.w3.org/2000/svg" xmlns:xlink="http://www.w3.org/1999/xlink" xml:space="preserve" xmlns:serif="http://www.serif.com/" style="fill-rule:evenodd;clip-rule:evenodd;stroke-linejoin:round;stroke-miterlimit:2;">
    <g transform="matrix(0.821763,0,0,0.474934,55.05,134.832)">
        <path d="M175.405,97.652C215.16,77.221 268.35,80.89 311.794,143.968C330.385,170.961 351.353,178.315 366.67,191.122C380.242,202.471 390.924,216.855 398.122,237.179C405.119,256.938 409.352,283.201 406.961,321.577L404.347,339.342L397.286,359.291C390.516,373.207 377.866,388.208 360.239,399.514C315.16,428.429 232.449,439.1 169.673,387.016C128.527,352.876 105.71,321.163 94.349,294.801C82.101,266.381 79.83,240.045 82.279,216.95C84.843,192.772 93.435,170.456 106.59,152.286C126.908,124.221 159.645,105.751 175.405,97.652Z" style="fill:rgb(134,155,57);"/>
    </g>
</svg>
