<?xml version="1.0" encoding="UTF-8" standalone="no"?>
<!DOCTYPE svg PUBLIC "-//W3C//DTD SVG 1.1//EN" "http://www.w3.org/Graphics/SVG/1.1/DTD/svg11.dtd">
<svg width="100%" height="100%" viewBox="0 0 128 128" version="1.1" xmlns="http://www.w3.org/2000/svg" xmlns:xlink="http://www.w3.org/1999/xlink" xml:space="preserve" xmlns:serif="http://www.serif.com/" style="fill-rule:evenodd;clip-rule:evenodd;stroke-linejoin:round;stroke-miterlimit:2;">
    <g transform="matrix(0.5,0,0,0.5,0,0)">
        <path d="M224,128C224,180.664 180.664,224 128,224C75.336,224 32,180.664 32,128C32,75.336 75.336,32 128,32C180.664,32 224,75.336 224,128Z" style="fill:rgb(253,178,162);fill-rule:nonzero;"/>
    </g>
    <g transform="matrix(0.5,0,0,0.5,0,0)">
        <path d="M92,140C85.417,140 80,134.583 80,128C80,121.417 85.417,116 92,116C98.583,116 104,121.417 104,128C104,134.583 98.583,140 92,140ZM164,116C157.417,116 152,121.417 152,128C152,134.583 157.417,140 164,140C170.583,140 176,134.583 176,128C176,121.417 170.583,116 164,116ZM151.73,161.23C137.219,170.236 118.781,170.236 104.27,161.23C102.992,160.424 101.511,159.996 100,159.996C95.609,159.996 91.996,163.609 91.996,168C91.996,170.745 93.408,173.306 95.73,174.77C115.45,187.063 140.55,187.063 160.27,174.77C162.592,173.306 164.004,170.745 164.004,168C164.004,163.609 160.391,159.996 156,159.996C154.489,159.996 153.008,160.424 151.73,161.23ZM232,128C232,185.053 185.053,232 128,232C70.947,232 24,185.053 24,128C24,70.947 70.947,24 128,24C185.03,24.06 231.94,70.97 232,128ZM216,128C215.943,81.221 178.641,42.224 131.91,40.09C120.32,56.38 120,71.88 120,72C120,76.389 123.611,80 128,80C132.389,80 136,76.389 136,72C136,67.611 139.611,64 144,64C148.389,64 152,67.611 152,72C152,85.166 141.166,96 128,96C114.834,96 104,85.166 104,72C104,71.27 104.13,57.7 112.46,41.37C70.693,48.863 40,85.553 40,127.987C40,176.262 79.725,215.987 128,215.987C176.27,215.987 215.993,176.27 216,128Z" style="fill-rule:nonzero;"/>
    </g>
</svg>
